HIERARCHY
ROOT Hips
{
  OFFSET -187.679 86.5976 -156.378
  CHANNELS 6 Xposition Yposition Zposition Zrotation Xrotation Yrotation
  JOINT LeftUpLeg
  {
    OFFSET 8.64259 1.95398 -2.38835
    CHANNELS 3 Zrotation Xrotation Yrotation
    JOINT LeftLeg
    {
      OFFSET 43.7702 0 0
      CHANNELS 3 Zrotation Xrotation Yrotation
      JOINT LeftFoot
      {
        OFFSET 40.6238 0 0
        CHANNELS 3 Zrotation Xrotation Yrotation
        JOINT LeftToeBase
        {
          OFFSET 12.7242 0 0
          CHANNELS 3 Zrotation Xrotation Yrotation
          End Site
          {
            OFFSET 0 0 0
          }
        }
      }
    }
  }
  JOINT RightUpLeg
  {
    OFFSET -8.2249 1.95398 -2.59336
    CHANNELS 3 Zrotation Xrotation Yrotation
    JOINT RightLeg
    {
      OFFSET 43.5653 0 0
      CHANNELS 3 Zrotation Xrotation Yrotation
      JOINT RightFoot
      {
        OFFSET 40.6238 0 0
        CHANNELS 3 Zrotation Xrotation Yrotation
        JOINT RightToeBase
        {
          OFFSET 12.7242 0 0
          CHANNELS 3 Zrotation Xrotation Yrotation
          End Site
          {
            OFFSET 0 0 0
          }
        }
      }
    }
  }
  JOINT Spine
  {
    OFFSET 0.165834 0.87714 6.61349
    CHANNELS 3 Zrotation Xrotation Yrotation
    JOINT Spine1
    {
      OFFSET 7.38963 1.71661e-005 0
      CHANNELS 3 Zrotation Xrotation Yrotation
      JOINT Spine2
      {
        OFFSET 11.9445 1.14441e-005 0
        CHANNELS 3 Zrotation Xrotation Yrotation
        JOINT Spine3
        {
          OFFSET 14.7254 4.19617e-005 0
          CHANNELS 3 Zrotation Xrotation Yrotation
          JOINT Spine4
          {
            OFFSET 10.9679 0 0
            CHANNELS 3 Zrotation Xrotation Yrotation
            JOINT RightShoulder
            {
              OFFSET 2.46616 -1.6653 3.69651
              CHANNELS 3 Zrotation Xrotation Yrotation
              JOINT RightArm
              {
                OFFSET 13.0012 0 0
                CHANNELS 3 Zrotation Xrotation Yrotation
                JOINT RightForeArm
                {
                  OFFSET 28.7848 1.52588e-005 0
                  CHANNELS 3 Zrotation Xrotation Yrotation
                  JOINT RightHand
                  {
                    OFFSET 26.5688 1.52588e-005 0
                    CHANNELS 3 Zrotation Xrotation Yrotation
                    End Site
                    {
                      OFFSET 0 0 0
                    }
                  }
                }
              }
            }
            JOINT LeftShoulder
            {
              OFFSET 2.38034 -1.29275 -3.7523
              CHANNELS 3 Zrotation Xrotation Yrotation
              JOINT LeftArm
              {
                OFFSET 16.3182 6.10352e-005 0
                CHANNELS 3 Zrotation Xrotation Yrotation
                JOINT LeftForeArm
                {
                  OFFSET 27.0901 0 0
                  CHANNELS 3 Zrotation Xrotation Yrotation
                  JOINT LeftHand
                  {
                    OFFSET 24.5451 1.52588e-005 0
                    CHANNELS 3 Zrotation Xrotation Yrotation
                    End Site
                    {
                      OFFSET 0 0 0
                    }
                  }
                }
              }
            }
            JOINT Neck
            {
              OFFSET 5.0226 -0.0266342 0
              CHANNELS 3 Zrotation Xrotation Yrotation
              JOINT Head
              {
                OFFSET 6.69363 2.86102e-005 0
                CHANNELS 3 Zrotation Xrotation Yrotation
                End Site
                {
                  OFFSET 0 0 0
                }
              }
            }
          }
        }
      }
    }
  }
}
MOTION
Frames:	14
Frame Time:	0.0416667
-121.812 10.7631 119.539 -15.7521 -2.14606 -92.544 -169.898 -9.97585 96.3597 -26.4256 13.3722 4.78862 71.4562 5.08478 -3.37397 17.9863 -6.58538 5.12354 160.841 -9.17858 72.418 -28.3102 3.57725 4.2597 69.0354 -3.14745 5.06898 34.6604 0.362584 2.28168 -0.827805 7.98448 -88.9471 10.9117 -1.1611 2.20416 -0.7607 -1.06298 2.25309 -23.2897 -1.76976 1.75347 -3.27703 -1.76978 1.7535 82.6032 -39.5165 -115.999 -37.7667 59.544 33.0245 -16.9604 29.342 -163.423 -8.63385 -3.68078 44.0593 -90.9684 -30.6712 71.9271 62.6098 -46.2138 63.6546 7.96287 -19.3335 -163.942 14.2925 6.14166 36.5664 54.7846 1.59954 -7.36099 -2.12921 6.05502 1.40601 
-121.664 11.3486 119.111 -14.7201 -0.139001 -93.1065 -170.081 -9.62369 95.3611 -25.3295 12.8584 3.92081 70.8852 5.34642 -2.19418 18.1889 -6.49895 5.14307 161.867 -6.08551 72.6788 -30.607 0.684686 3.40442 69.5176 -3.19776 2.16036 35.3531 0.446425 2.4313 -0.723095 7.84483 -88.7573 11.1872 -0.861527 2.55857 -0.48608 -0.748085 2.594 -23.0079 -1.59047 2.18165 -2.99524 -1.59047 2.1817 81.3652 -41.0067 -117.37 -40.6695 60.4226 34.2479 -16.9362 27.8189 -163.304 -9.20455 -4.06238 45.3976 -87.9235 -26.9106 76.5155 46.1223 -46.5184 54.5279 8.77612 -27.5043 -165.297 14.4919 6.33645 37.265 54.5235 0.448515 -10.4418 -2.33724 6.88648 3.76726 
-121.697 11.2473 119.231 -14.7377 -0.463625 -93.3047 -170.239 -9.71073 95.1535 -25.2483 13.2889 4.04209 70.608 5.30534 -1.85356 18.0959 -6.24965 4.5002 161.534 -6.226 72.3154 -30.3808 0.807999 3.56062 69.4577 -3.18919 2.48452 35.9182 0.590524 2.2176 -0.744923 7.82378 -88.7497 11.2301 -0.900815 2.57792 -0.443194 -0.786528 2.61502 -22.9651 -1.63378 2.18831 -2.95246 -1.63378 2.18829 81.8677 -40.4157 -116.814 -35.9897 59.53 31.182 -17.5526 30.1958 -163.168 -8.52288 -3.6986 44.8705 -88.4827 -27.1586 75.4902 48.4044 -45.8672 55.9729 8.82487 -26.5564 -165.202 15.5645 6.88556 38.0272 54.2351 0.514084 -10.4302 -2.17284 6.91641 3.5811 
-121.694 11.2387 119.257 -14.6956 -0.538251 -93.2584 -170.278 -9.58619 95.1932 -25.33 12.8614 4.0651 70.7195 5.19163 -2.46365 18.298 -6.26209 4.73491 161.487 -6.19823 72.2915 -30.3039 0.486973 3.59567 69.4177 -3.18164 2.44484 35.3105 0.512393 2.10726 -0.708936 7.79516 -88.7693 11.2866 -0.837655 2.5337 -0.386581 -0.725376 2.56807 -22.9085 -1.56027 2.16509 -2.89589 -1.56025 2.16507 82.7596 -39.7979 -115.613 -31.9074 58.7005 28.6765 -18.1127 32.7238 -163.235 -7.73614 -3.31162 44.6068 -88.8458 -27.4676 74.8749 49.0599 -45.6773 56.1746 9.09728 -27.0622 -165.163 15.6973 7.0425 38.5963 53.9785 0.473842 -10.6904 -2.26497 7.00931 4.42203 
-121.704 11.1931 119.37 -14.7143 -0.704444 -93.3792 -170.456 -9.71362 94.9372 -25.2811 12.9561 4.18005 70.7148 5.24232 -2.24437 18.1406 -6.29779 4.65156 161.187 -6.15438 71.9733 -30.2814 0.164498 3.72621 69.2667 -3.13636 2.19177 37.1825 0.773053 2.36602 -0.723475 7.79779 -88.7892 11.2817 -0.875927 2.49769 -0.391403 -0.765208 2.53377 -22.9141 -1.58595 2.11924 -2.90151 -1.58593 2.11924 82.8715 -39.5145 -115.551 -32.5892 59.0127 29.4677 -18.2499 33.5335 -163.519 -8.12967 -3.50231 44.714 -89.1386 -28.0937 74.5135 50.3654 -45.83 56.8318 9.28053 -27.5215 -165.198 15.6795 7.13317 39.131 54.2191 0.707893 -9.84968 -2.30438 6.72921 3.56918 
-121.68 11.1427 119.428 -14.7145 -0.918792 -93.2973 -170.538 -9.64078 94.9625 -25.4501 13.0103 4.33252 70.8812 5.31415 -2.22823 18.4445 -6.37846 5.14301 161.133 -6.40723 72.0467 -30.0761 0.573812 3.82222 69.4504 -3.19858 2.37281 36.8321 0.709036 2.38761 -0.712384 7.79504 -88.8305 11.2874 -0.87306 2.41529 -0.385637 -0.765958 2.45134 -22.9094 -1.55846 2.04148 -2.89674 -1.55847 2.04148 83.3575 -39.2218 -114.864 -32.3768 58.884 29.4961 -18.5021 34.8694 -163.806 -8.16507 -3.5215 44.747 -89.3481 -28.4314 74.2216 50.3267 -45.9478 56.6396 9.6476 -28.6459 -165.218 15.4458 7.11854 39.5613 54.2228 0.868481 -9.49414 -2.35283 6.65514 3.6082 
-121.695 11.1978 119.337 -14.7165 -0.612457 -93.3728 -170.431 -9.69636 94.9639 -25.3146 13.3076 4.18052 70.5655 5.24355 -2.03011 18.5372 -6.22626 4.90401 161.306 -6.19637 72.0713 -30.3018 0.518444 3.65194 69.4721 -3.19841 2.48604 36.9074 0.785497 2.08398 -0.641618 7.7954 -88.8456 11.2852 -0.739369 2.37186 -0.387756 -0.634293 2.40208 -22.911 -1.41789 2.04023 -2.89831 -1.41791 2.04022 83.7792 -39.1426 -114.186 -32.6485 58.9089 29.8414 -18.6667 36.1193 -164.223 -8.58442 -3.69705 44.5197 -89.6145 -28.7189 73.8046 48.5553 -45.5655 55.3735 10.1736 -30.5883 -165.1 15.0644 6.97796 39.6187 53.8789 0.85706 -9.5326 -2.07332 6.64187 4.3474 
-121.702 11.1914 119.34 -14.7511 -0.748689 -93.3995 -170.384 -9.66149 95.0256 -25.3852 13.3692 4.17043 70.6483 5.27533 -1.98409 17.9156 -6.1101 4.01012 161.201 -6.2703 72.0109 -30.2227 0.409197 3.72106 69.3802 -3.17451 2.30262 37.0092 0.787991 2.15386 -0.626283 7.81077 -88.8965 11.2547 -0.732633 2.26935 -0.41809 -0.632055 2.29937 -22.9425 -1.38067 1.94446 -2.92987 -1.38067 1.94446 84.552 -38.3275 -113.218 -31.4767 58.7766 29.3408 -18.973 37.7359 -164.61 -8.77623 -3.75618 44.1788 -89.9147 -29.2452 73.4114 50.1968 -46.0791 56.3047 10.3516 -30.7691 -165.246 15.4935 7.30269 40.4804 54.0548 1.19533 -8.52513 -1.9964 6.34825 3.79714 
-121.697 11.2023 119.283 -14.6393 -0.617157 -93.2996 -170.318 -9.68011 95.1391 -25.171 13.4243 4.12507 70.7312 5.32675 -2.04164 17.9931 -6.3117 4.53134 161.393 -6.19335 72.235 -30.2866 0.361854 3.6482 69.5079 -3.20601 2.17672 36.7653 0.717216 2.29508 -0.571817 7.79279 -88.9389 11.2898 -0.643688 2.17682 -0.382866 -0.547273 2.20303 -22.9077 -1.26803 1.8829 -2.89507 -1.26805 1.88291 85.0656 -37.9157 -112.506 -30.7545 58.5294 29.0901 -19.175 39.2849 -165.025 -8.98823 -3.80703 43.6532 -90.2208 -29.6498 72.9698 50.2779 -46.3653 56.0998 10.586 -31.4653 -165.22 15.2175 7.22421 40.6823 54.0035 1.32069 -8.0083 -1.93196 6.14267 3.69649 
-121.705 11.1717 119.313 -14.6594 -0.727258 -93.3647 -170.452 -9.61066 94.9845 -25.4014 13.2882 4.2378 70.6046 5.26408 -1.97986 18.608 -6.26498 5.06192 161.288 -6.29209 72.1418 -30.1776 0.651919 3.71412 69.5996 -3.23805 2.32646 36.6014 0.683513 2.32302 -0.553583 7.80551 -88.9668 11.268 -0.620767 2.11818 -0.404604 -0.526923 2.14341 -22.93 -1.22857 1.83386 -2.91729 -1.22855 1.83385 85.5292 -37.5417 -111.856 -30.8421 58.6709 29.4388 -19.2631 40.1691 -165.453 -9.26026 -3.87008 42.9847 -90.4192 -29.8063 72.6491 47.7951 -46.1032 54.7086 11.0017 -33.0146 -164.874 14.2601 6.66085 39.7414 54.15 1.45038 -7.53011 -1.9994 5.97568 3.54872 
-121.695 11.1872 119.323 -14.6508 -0.685998 -93.4069 -170.469 -9.67915 94.9351 -25.2405 13.2461 4.19744 70.5602 5.26409 -1.9816 18.6336 -6.12733 4.78258 161.308 -6.19485 72.1058 -30.3267 0.826691 3.70822 69.6558 -3.24712 2.46294 36.7491 0.700476 2.36107 -0.503411 7.8091 -89.0071 11.2664 -0.539641 2.02904 -0.406061 -0.449822 2.05081 -22.9319 -1.12441 1.7732 -2.9192 -1.12442 1.77319 86.3219 -37.0267 -110.677 -30.5219 59.0285 29.5081 -18.9384 40.7847 -166.314 -10.1908 -4.24635 42.5874 -90.6844 -30.0704 72.2421 49.5691 -46.6826 55.6366 10.8129 -31.8394 -165.141 15.2649 7.22818 40.5876 54.1645 1.58114 -7.06705 -1.95649 5.81117 3.72297 
-121.692 11.1639 119.393 -14.698 -0.782346 -93.4156 -170.485 -9.74694 94.9011 -25.212 13.4219 4.21073 70.5613 5.32824 -1.73951 18.1779 -6.02559 4.09144 161.17 -6.24481 71.9863 -30.2846 0.729288 3.7893 69.526 -3.20759 2.50758 36.9506 0.766143 2.21115 -0.474402 7.80163 -89.0471 11.2707 -0.500293 1.94692 -0.401637 -0.414138 1.96703 -22.9281 -1.06223 1.70667 -2.91544 -1.06223 1.70666 86.6814 -36.8996 -110.094 -31.5065 59.9163 30.4686 -18.4101 40.4819 -167.148 -11.1668 -4.56731 41.5774 -91.0119 -30.3774 71.7382 48.6446 -46.4214 54.8122 10.8119 -31.2921 -164.852 15.2182 7.12058 40.0961 53.8738 1.51582 -6.83151 -1.97003 5.58839 4.1469 
-121.677 11.207 119.354 -14.7239 -0.648419 -93.3581 -170.369 -9.77928 95.0074 -25.1694 13.6374 4.14579 70.5531 5.36689 -1.54711 18.4469 -6.13644 4.60955 161.242 -6.18532 72.0776 -30.378 0.862779 3.77055 69.5535 -3.21888 2.50763 36.7848 0.697315 2.40505 -0.432921 7.79824 -89.1012 11.2775 -0.443028 1.83352 -0.394686 -0.361893 1.85125 -22.922 -0.973513 1.61572 -2.90933 -0.973515 1.61571 86.7917 -36.7459 -109.959 -32.4178 60.8767 31.2372 -17.9377 39.8737 -167.712 -11.2327 -4.41953 39.9682 -91.4367 -30.8692 71.1266 48.8816 -46.1925 54.889 10.4541 -30.0639 -164.689 15.0925 6.93175 39.3371 53.8048 1.56173 -6.39489 -2.11748 5.35406 4.14129 
-121.633 11.1914 119.351 -14.7878 -0.451245 -93.3204 -170.428 -9.92244 94.9767 -25.21 13.2059 4.18495 70.8759 5.44838 -1.90325 18.6396 -6.41148 5.42013 161.31 -6.14389 72.0795 -30.5855 0.978555 3.75938 69.635 -3.21226 2.57578 37.0896 0.792013 2.19975 -0.384893 7.803 -89.1619 11.2678 -0.375774 1.70576 -0.404274 -0.300349 1.72062 -22.9324 -0.871007 1.51404 -2.91976 -0.871005 1.51405 87.3 -36.4058 -109.187 -32.0911 61.7649 30.3698 -17.4901 39.0646 -168.19 -11.8753 -4.59242 39.1363 -91.8416 -31.114 70.4678 49.1392 -46.015 55.0851 9.85655 -28.178 -164.625 15.1025 6.79074 38.5025 54.4531 1.49397 -5.73675 -2.75145 4.90616 3.48546 
